Coordinates
version=1
nRows=10
nColumns=40
inDegrees=yes
endheader
time	pelvis_tilt	pelvis_list	pelvis_rotation	pelvis_tx	pelvis_ty	pelvis_tz	hip_flexion_r	hip_adduction_r	hip_rotation_r	knee_angle_r	knee_angle_r_beta	ankle_angle_r	subtalar_angle_r	mtp_angle_r	hip_flexion_l	hip_adduction_l	hip_rotation_l	knee_angle_l	knee_angle_l_beta	ankle_angle_l	subtalar_angle_l	mtp_angle_l	lumbar_extension	lumbar_bending	lumbar_rotation	arm_flex_r	arm_add_r	arm_rot_r	elbow_flex_r	pro_sup_r	wrist_flex_r	wrist_dev_r	arm_flex_l	arm_add_l	arm_rot_l	elbow_flex_l	pro_sup_l	wrist_flex_l	wrist_dev_l
1760625401.39800000	      3.98033940	      0.12207350	     -1.26129115	     -0.00477841	      0.93518302	      0.00382107	     80.00000000	     -7.00000000	      0.00000000	     80.00000000	      1.39626340	      0.00000000	      0.00000000	      0.00000000	     80.00000000	     -7.00000000	      0.00000000	     80.00000000	      1.39626340	      0.00000000	      0.00000000	      0.00000000	     -4.44804960	     -0.07380965	      1.48918507	      2.77869924	     -5.49243055	     -0.10604207	      3.52373216	      0.00000000	     -5.52391354	      4.45189269	      1.15262062	     -4.83825920	      0.17440827	      3.68172186	      0.00000000	     -4.19417317	      4.13593871
1760625401.43099999	      4.65716892	      0.13197267	     -0.99343250	     -0.00858272	      0.94029534	      0.00318823	     80.00000000	     -7.00000000	      0.00000000	     80.00000000	      1.39626340	      0.00000000	      0.00000000	      0.00000000	     80.00000000	     -7.00000000	      0.00000000	     80.00000000	      1.39626340	      0.00000000	      0.00000000	      0.00000000	     -5.02161514	     -0.14111214	      1.21760657	      2.74321335	     -5.52599953	      0.00922121	      3.44007192	      0.00000000	     -5.48514197	      4.56372056	      0.96602367	     -4.97843089	      0.09653589	      4.80171247	      0.00000000	     -5.24094930	      3.93999801
1760625401.46499991	      4.65256675	      0.12284751	     -0.98818256	     -0.00885944	      0.94066084	      0.00342082	     80.00000000	     -7.00000000	      0.00000000	     80.00000000	      1.39626340	      0.00000000	      0.00000000	      0.00000000	     80.00000000	     -7.00000000	      0.00000000	     80.00000000	      1.39626340	      0.00000000	      0.00000000	      0.00000000	     -5.02288517	     -0.13786835	      1.22391394	      2.69721564	     -5.51187646	      0.08167400	      3.45022675	      0.01247759	     -5.41443791	      4.54668569	      0.95587669	     -4.99507629	      0.07436745	      4.81007507	      0.00000000	     -5.25932228	      3.94538812
1760625401.49799991	      4.66659929	      0.10981548	     -0.98229132	     -0.00931254	      0.94117822	      0.00338939	     80.00000000	     -7.00000000	      0.00000000	     80.00000000	      1.39626340	      0.00000000	      0.00000000	      0.00000000	     80.00000000	     -7.00000000	      0.00000000	     80.00000000	      1.39626340	      0.00000000	      0.00000000	      0.00000000	     -5.02770396	     -0.14194740	      1.22128037	      2.64651939	     -5.49928370	      0.07390373	      3.44135022	      0.00000000	     -5.35741037	      4.55315225	      0.90076473	     -5.03283900	      0.08617862	      4.84584746	      0.00000000	     -5.26642494	      3.94088847
1760625401.53099990	      4.66830267	      0.10123246	     -0.98542251	     -0.00921129	      0.94148616	      0.00228221	     80.00000000	     -7.00000000	      0.00000000	     80.00000000	      1.39626340	      0.00000000	      0.00000000	      0.00000000	     80.00000000	     -7.00000000	      0.00000000	     80.00000000	      1.39626340	      0.00000000	      0.00000000	      0.00000000	     -5.02714469	     -0.14154097	      1.21932579	      2.64400509	     -5.49438558	      0.10125046	      3.44836709	      0.01591650	     -5.34622453	      4.55824399	      0.89397737	     -5.04732754	      0.01247493	      4.83299778	      0.00000000	     -5.29262023	      3.94401700
1760625401.56500006	      4.66894281	      0.09738526	     -0.98291801	     -0.00943265	      0.94228391	      0.00205344	     80.00000000	     -7.00000000	      0.00000000	     80.00000000	      1.39626340	      0.00000000	      0.00000000	      0.00000000	     80.00000000	     -7.00000000	      0.00000000	     80.00000000	      1.39626340	      0.00000000	      0.00000000	      0.00000000	     -5.02445226	     -0.14397729	      1.22158478	      2.64986519	     -5.48758405	      0.10162599	      3.45634179	      0.01620898	     -5.33837401	      4.55855846	      0.88483701	     -5.05159288	      0.00835585	      4.82467025	      0.00000000	     -5.30557490	      3.94299426
1760625401.59800005	      5.04862120	      0.08789109	     -0.75584496	     -0.01019955	      0.94280948	      0.00253708	     80.00000000	     -7.00000000	      0.00000000	     80.00000000	      1.39626340	      0.00000000	      0.00000000	      0.00000000	     80.00000000	     -7.00000000	      0.00000000	     80.00000000	      1.39626340	      0.00000000	      0.00000000	      0.00000000	     -5.35562918	     -0.13759548	      0.99371340	      2.61242854	     -5.40591988	      0.09638270	      3.47380558	      0.17484046	     -5.34789289	      4.44127539	      0.79088795	     -5.09383079	     -0.05441957	      5.39129120	      0.00000000	     -5.89961030	      3.84356735
1760625401.66499996	      5.06262821	      0.07982847	     -0.74218775	     -0.01111640	      0.94304046	      0.00315641	     80.00000000	     -7.00000000	      0.00000000	     80.00000000	      1.39626340	      0.00000000	      0.00000000	      0.00000000	     80.00000000	     -7.00000000	      0.00000000	     80.00000000	      1.39626340	      0.00000000	      0.00000000	      0.00000000	     -5.38012985	     -0.11825196	      1.00296152	      2.63729507	     -5.38343843	      0.03183161	      3.46068917	      0.29307174	     -5.36864868	      4.38523468	      0.79088880	     -5.15112001	     -0.21371222	      5.37109515	      0.00000000	     -5.97869608	      3.93390371
1760625401.69899988	      5.07622206	      0.05339932	     -0.73383203	     -0.01099011	      0.94295456	      0.00318875	     80.00000000	     -7.00000000	      0.00000000	     80.00000000	      1.39626340	      0.00000000	      0.00000000	      0.00000000	     80.00000000	     -7.00000000	      0.00000000	     80.00000000	      1.39626340	      0.00000000	      0.00000000	      0.00000000	     -5.39190396	     -0.07318970	      1.02645387	      2.65731522	     -5.38844705	     -0.09283458	      3.42860012	      0.45474024	     -5.37373070	      4.37191234	      0.78409832	     -5.14302265	     -0.28148665	      5.39211852	      0.00000000	     -6.07028677	      3.92131526
1760625401.73200011	      5.00234472	     -0.10949277	     -0.81336845	     -0.01072052	      0.94331229	      0.00315243	     80.00000000	     -7.00000000	      0.00000000	     80.00000000	      1.39626340	      0.00000000	      0.00000000	      0.00000000	     80.00000000	     -7.00000000	      0.00000000	     80.00000000	      1.39626340	      0.00000000	      0.00000000	      0.00000000	     -5.38415605	      0.11278777	      1.11607481	      2.79115808	     -5.43704102	     -0.07860896	      3.38112869	      0.52928340	     -5.41176519	      4.37838086	      0.82038593	     -5.15633883	     -0.35972347	      6.07213325	      0.00000000	     -6.78406516	      3.79004678
